<?xml version="1.0" encoding="UTF-8" standalone="no"?>
<!-- Created with Inkscape (http://www.inkscape.org/) -->
<svg id="svg2" xmlns:rdf="http://www.w3.org/1999/02/22-rdf-syntax-ns#" xmlns="http://www.w3.org/2000/svg" viewBox="0 0 325 40.047" version="1.1" xmlns:cc="http://creativecommons.org/ns#" xmlns:dc="http://purl.org/dc/elements/1.1/">
 <metadata id="metadata7">
  <rdf:RDF>
   <cc:Work rdf:about="">
    <dc:format>image/svg+xml</dc:format>
    <dc:type rdf:resource="http://purl.org/dc/dcmitype/StillImage"/>
    <dc:title/>
   </cc:Work>
  </rdf:RDF>
 </metadata>
 <g id="layer1" transform="translate(-137.5,-372.33734)">
  <g id="g4635" stroke-miterlimit="4">
   <path id="path3724" stroke-linejoin="miter" d="m140,392.36,320,0" stroke="#505256" stroke-linecap="square" stroke-dasharray="none" stroke-width="5" fill="#1a1a1a"/>
   <path id="path4629" d="m310,362.36c0,22.091-17.909,40-40,40s-40-17.909-40-40,17.909-40,40-40,40,17.909,40,40z" transform="matrix(0.49999999,0,0,0.49999999,165.23257,211.18109)" stroke-width="0" fill="#acc91c"/>
   <path id="path4631" d="m310,362.36c0,22.091-17.909,40-40,40s-40-17.909-40-40,17.909-40,40-40,40,17.909,40,40z" transform="matrix(0.28575584,0,0,0.28575584,323.4157,288.24531)" stroke-width="0" fill="#acc91c"/>
   <path id="path4633" d="m310,362.36c0,22.091-17.909,40-40,40s-40-17.909-40-40,17.909-40,40-40,40,17.909,40,40z" transform="matrix(0.34011635,0,0,0.34011635,108.6337,269.11688)" stroke-width="0" fill="#acc91c"/>
  </g>
 </g>
</svg>
