<?xml version="1.0" encoding="UTF-8" standalone="no"?>
<!-- Created with Inkscape (http://www.inkscape.org/) -->

<svg
   xmlns:dc="http://purl.org/dc/elements/1.1/"
   xmlns:cc="http://creativecommons.org/ns#"
   xmlns:rdf="http://www.w3.org/1999/02/22-rdf-syntax-ns#"
   xmlns:svg="http://www.w3.org/2000/svg"
   xmlns="http://www.w3.org/2000/svg"
   version="1.1"
   width="200"
   height="200"
   id="svg2">
  <defs
     id="defs4" />
  <metadata
     id="metadata7">
    <rdf:RDF>
      <cc:Work
         rdf:about="">
        <dc:format>image/svg+xml</dc:format>
        <dc:type
           rdf:resource="http://purl.org/dc/dcmitype/StillImage" />
        <dc:title></dc:title>
      </cc:Work>
    </rdf:RDF>
  </metadata>
  <g
     transform="translate(0,-852.36218)"
     id="layer1">
    <path
       d="m 165.9981,935.7697 c 0.51511,0.63677 -1.41471,26.41562 0.71875,19.375 6.56819,0.0981 13.10542,0.29235 21.65625,-7.9375 -6.99114,0.48568 -13.78708,0.37028 -19.96875,-1.96875 3.79709,-0.0981 7.21833,-1.25065 10.65625,-2.4375 3.59562,-1.24153 6.17972,-4.00465 8.40625,-7.34375 -1.39536,0.64896 -2.8694,0.97107 -4.4375,1.25 -5.7135,1.0088 -11.34585,0.65408 -17.03125,-0.9375 z"
       id="path4917"
       style="fill:#acc91c;fill-opacity:1" />
    <path
       d="m 134.40625,889.73718 c -5.71877,-0.0729 -8.96803,3.62161 -13.125,5.9375 1.06806,-1.52501 1.59825,-2.92893 1.53125,-4.25 -14.04148,8.33217 -23.44037,32.59364 -27.46875,43.3125 -8.95381,-8.81014 -25.15114,-18.209 -59.78125,-31.28125 -0.25721,1.93254 -0.16907,3.83195 0.4375,5.8125 2.00788,6.55101 5.63843,12.56571 14.1875,16.9375 -3.78098,-0.37425 -7.28105,0.25007 -10.65625,1.5 0.61989,3.0465 1.01063,5.5823 4.875,9.46875 3.96775,3.98984 9.44776,6.64459 15.5625,8.6875 -6.50054,-0.95733 -9.51705,1.59493 -12.21875,4.4375 1.20438,4.89846 5.52087,7.27318 9.9375,9.53125 3.29005,1.68234 6.96309,2.1132 11.28125,1.3125 -2.38036,1.4693 -4.82114,2.86886 -5.96875,4.875 -1.41252,2.4599 -1.26397,5.1654 1.375,7.78125 2.78265,2.75182 6.45655,3.59131 10.84375,2.90625 -24.39799,23.91647 -54.38422,13.67336 -66.0625,2.875 8.63668,11.89731 19.78219,20.49057 33.09375,26.71877 17.95457,8.4017 34.42413,8.5824 51.4375,7.1562 18.14412,-1.5225 35.68503,-8.4649 52,-23.03122 11.8302,-10.56204 17.4705,-22.25339 20.4981,-33.8144 -0.0294,-0.15386 0.002,-0.0542 0.002,-0.21685 l 0,-20.75 c -0.0101,-0.003 -0.0211,0.003 -0.0312,0 -0.45098,-5.02424 -2.35335,-9.60618 -5.1875,-14.1875 -8.5284,-13.7885 -19.45994,-20.10495 -32.8125,-20.4375 4.35496,-1.41637 8.7932,-1.77105 12.96875,-4.71875 2.05834,-1.45071 2.10431,-4.31538 -1.53125,-3.65625 -3.92009,0.7124 -7.70137,1.91266 -11.4375,3.34375 3.70423,-1.38413 5.59158,-3.54374 6.25,-6.25 z"
       id="bird"
       style="fill:#cfe413;fill-opacity:1" />
    <path
       d="m 140.71429,72.14286 a 5.7142859,5.7142859 0 1 1 -11.42858,0 5.7142859,5.7142859 0 1 1 11.42858,0 z"
       transform="translate(13.343911,860.4231)"
       id="path4911"
       style="fill:#90b125;fill-opacity:1;stroke:#90b125;stroke-width:5;stroke-linecap:butt;stroke-linejoin:miter;stroke-miterlimit:4;stroke-opacity:1;stroke-dasharray:none;stroke-dashoffset:0" />
    <g
       transform="translate(184.74543,915.39292)"
       id="5151e0c8492e5103c096af88a5006e1e">
      <g
         id="g5063" />
      <path
         d="M 6.962,266.753 C 29.552,261.112 60.267,253.429 114.08,252 c -1.487,-2.974 -2.83,-6.053 -4.019,-9.228 -20.94,-0.182 -85.43,2.792 -107.521,8.25 -0.125,0.039 -0.259,0.048 -0.393,0.048 -0.739,0 -1.42,-0.508 -1.602,-1.256 -0.211,-0.873 0.326,-1.774 1.208,-1.995 21.89,-5.41 84.825,-8.413 107.118,-8.355 -5.017,-14.753 -7.233,-31.655 -7.233,-50.523 0,-33.516 10.437,-46.159 24.46,-64.02 -10.724,-38.197 3.847,-64.307 3.847,-64.307 0,0 22.533,-4.671 65.132,25.832 23.089,-9.89 84.647,-10.714 113.77,-2.196 17.88,-11.818 50.571,-28.585 63.77,-23.895 3.568,5.755 11.262,22.513 4.662,59.348 4.489,8.077 27.761,25.286 27.856,73.928 -0.384,17.938 -2.245,33.084 -5.698,45.899 55.54,-0.47 88.212,4.115 110.715,8.259 0.883,0.182 1.478,1.036 1.324,1.928 -0.153,0.787 -0.844,1.353 -1.611,1.353 -0.115,0 -0.211,-0.009 -0.326,-0.019 -22.466,-4.163 -55.194,-8.729 -111.061,-8.221 -0.979,3.252 -2.072,6.341 -3.262,9.286 19.013,0.633 71.233,2.667 113.823,15.693 0.883,0.269 1.362,1.189 1.094,2.072 -0.211,0.7 -0.863,1.16 -1.573,1.16 -0.153,0 -0.326,-0.019 -0.479,-0.076 -43.185,-13.199 -96.538,-15.012 -114.283,-15.598 -15.444,33.929 -47.118,46.59 -98.322,51.856 16.595,10.446 21.353,23.548 21.353,59.003 0,35.453 -0.479,40.211 -0.364,48.363 0.173,13.383 19.779,19.789 19.051,24.096 -0.729,4.299 -16.403,3.607 -23.731,1.047 -20.758,-7.232 -18.687,-24.5 -18.687,-24.5 l -0.69,-47.404 c 0,0 1.42,-25.516 -8,-25.516 0,5.131 0,59.242 0,77.592 0,16.863 11.799,21.986 11.799,28.221 0,10.715 -21.563,-1.016 -28.202,-7.703 -10.134,-10.168 -8.982,-31.73 -8.733,-48.785 0.23,-16.471 -0.153,-52.49 -0.153,-52.49 l -6.877,0.145 c 0,0 2.82,78.686 -3.626,93.025 -8.335,18.408 -33.477,24.74 -33.477,16.355 0,-5.641 6.196,-3.846 9.621,-16.488 2.925,-10.754 1.928,-90.975 1.928,-90.975 0,0 -8.057,4.768 -8.057,19.789 0,6.877 -0.192,46.158 -0.192,57.852 0,14.705 -20.883,23.078 -30.917,23.078 -5.084,0 -11.405,-0.248 -11.405,-2.943 0,-6.801 19.099,-10.793 19.099,-24.941 0,-12.268 -0.269,-43.826 -0.269,-43.826 0,0 -9.631,1.648 -23.367,1.648 -34.628,0 -45.583,-22.1 -50.792,-34.465 -6.782,-16.105 -15.578,-23.673 -24.921,-29.717 -5.736,-3.712 -7.06,-8.096 -0.422,-9.343 30.657,-5.774 38.494,34.763 58.964,41.218 14.609,4.615 33.391,2.619 42.734,-3.424 1.238,-12.385 10.159,-23.089 17.593,-28.729 -52.067,-4.998 -82.936,-23.079 -98.936,-52.145 -54.466,1.305 -85.372,9.036 -108.029,14.695 -1.65,0.413 -3.261,0.815 -4.815,1.209 -0.134,0.028 -0.269,0.038 -0.403,0.038 -0.739,0 -1.41,-0.499 -1.602,-1.247 -0.221,-0.882 0.326,-1.784 1.209,-2.005 1.56,-0.384 3.162,-0.776 4.802,-1.198 z"
         id="XMLID_1_"
         style="display:inline" />
    </g>
  </g>
</svg>
